<svg xmlns="http://www.w3.org/2000/svg" width="2571" height="1341"><path d="M0 0 C3 1 3 1 4.65063477 3.74951172 C5.25770152 4.97124936 5.85384023 6.19845271 6.44140625 7.4296875 C6.76858139 8.09348419 7.09575653 8.75728088 7.43284607 9.44119263 C8.48558115 11.58128351 9.52457788 13.72769148 10.5625 15.875 C11.91374921 18.64530538 13.27097582 21.41265235 14.62890625 24.1796875 C15.1241116 25.19084421 15.1241116 25.19084421 15.6293211 26.22242832 C18.14073234 31.32426196 20.75909873 36.35852195 23.43286133 41.37670898 C29.65571242 53.1362947 35.58555159 65.04142657 41.52389765 76.94640136 C43.09322114 80.09141425 44.66489845 83.23525054 46.23629761 86.37922668 C49.19481513 92.29933684 52.15129702 98.220461 55.10699832 104.14197761 C58.47918554 110.89763375 61.85371757 117.65211768 65.2284205 124.40651739 C72.15483998 138.26973396 79.0783997 152.13437663 86 166 C89.8249163 166 91.47136855 164.75729464 94.7578125 162.80859375 C95.61477974 162.30391068 95.61477974 162.30391068 96.48905945 161.78903198 C98.3715114 160.67815094 100.24822042 159.55793318 102.125 158.4375 C103.43939681 157.65924169 104.75409777 156.88149684 106.0690918 156.10424805 C115.36979 150.59883235 124.63511847 145.0337139 133.89306641 139.45678711 C141.86290298 134.66154918 149.88653217 129.96423666 157.93334961 125.29956055 C163.31375211 122.17357386 168.6678163 119.0092548 173.9921875 115.7890625 C174.57011047 115.43994812 175.14803345 115.09083374 175.74346924 114.73114014 C178.55148907 113.03386793 181.35603771 111.3312234 184.15625 109.62109375 C185.15398438 109.01652344 186.15171875 108.41195312 187.1796875 107.7890625 C188.06382324 107.24975098 188.94795898 106.71043945 189.85888672 106.15478516 C192 105 192 105 194 105 C192.66254369 114.92796819 191.01694376 124.77090289 189.18676758 134.6184082 C188.90873531 136.12617349 188.63096712 137.63398748 188.35343933 139.1418457 C187.76131206 142.35639104 187.16754324 145.57062699 186.57248878 148.78463173 C185.63229434 153.86391877 184.69703968 158.94410789 183.76261902 164.02445984 C181.1069334 178.45906332 178.44482128 192.89247717 175.77758789 207.32495117 C174.3000329 215.32028357 172.82654688 223.31635509 171.35749358 231.31325406 C170.42859566 236.36839086 169.49456326 241.42254373 168.55676043 246.47603571 C167.97740521 249.60455635 167.40278558 252.7339324 166.82954597 255.8635788 C166.56184079 257.31968152 166.29215115 258.77542092 166.02038956 260.23077202 C165.65145335 262.20803955 165.29013153 264.18672344 164.92927551 266.16548157 C164.72446973 267.27465093 164.51966394 268.38382029 164.30865192 269.52660084 C164.15586922 270.75093342 164.15586922 270.75093342 164 272 C164.33 272.33 164.66 272.66 165 273 C170.63873398 267.45303565 176.18626043 261.91538456 181.32421875 255.89453125 C183.76654184 253.13339675 186.40554261 250.58531189 189.03125 248 C191.54455606 245.4468002 193.85768588 242.74763583 196.19140625 240.03125 C199.30504645 236.53428909 202.65139835 233.27032265 206 230 C209.02551777 231.51275889 209.44466115 233.8115132 210.80859375 236.875 C211.08725281 237.49508438 211.36591187 238.11516876 211.65301514 238.75404358 C212.26377188 240.11452771 212.87168076 241.47629293 213.47714233 242.83914185 C215.13268501 246.56420492 216.8100689 250.27943636 218.484375 253.99609375 C218.841259 254.78978867 219.19814301 255.58348358 219.56584167 256.40122986 C223.62250229 265.41056931 227.76905876 274.37804733 231.92581177 283.34155273 C233.16931271 286.02327742 234.41075321 288.70594934 235.65209961 291.38867188 C236.42805948 293.06257565 237.2041752 294.7364072 237.98046875 296.41015625 C238.50154205 297.53648216 238.50154205 297.53648216 239.03314209 298.68556213 C239.36533752 299.40042282 239.69753296 300.11528351 240.03979492 300.85180664 C240.32320236 301.46286758 240.6066098 302.07392853 240.89860535 302.70350647 C242.55515841 306.15754847 244.28004681 309.57718035 246 313 C246.59502603 312.85699431 247.19005205 312.71398863 247.80310917 312.56664944 C262.44253875 309.04843547 277.08254105 305.53261504 291.72314548 302.01929379 C298.80390117 300.32005953 305.88447739 298.62008486 312.96459961 296.91821289 C319.15277495 295.43074325 325.34131934 293.94481954 331.53026909 292.46057516 C334.79165609 291.67837166 338.05282403 290.89528502 341.31366158 290.11079216 C360.17317958 285.57428264 379.06942802 281.22828315 398 277 C396.43225679 282.83891821 394.85709803 288.66033198 392.98901367 294.41186523 C392.61900238 295.5554097 392.24899109 296.69895416 391.86776733 297.87715149 C391.4718338 299.09202744 391.07590027 300.30690338 390.66796875 301.55859375 C390.23867371 302.88222484 389.8096136 304.20593215 389.38076782 305.52970886 C388.46394248 308.35819614 387.54554934 311.18616745 386.62588501 314.01373291 C385.16877737 318.4938179 383.71533606 322.97508706 382.26245117 327.45654297 C380.22277295 333.74699018 378.18168875 340.03697937 376.13964844 346.32666016 C371.75235283 359.84086348 367.3733636 373.35775638 362.99770451 386.87573147 C361.5553888 391.33137065 360.11189788 395.78662662 358.66738892 400.24155521 C357.76628961 403.02126062 356.8660866 405.80125571 355.96610641 408.58132362 C355.35553535 410.46649241 354.74390517 412.35131807 354.13223267 414.23612976 C352.00805295 420.80151074 349.94624458 427.37957447 348 434 C348.78995361 434.0935376 349.57990723 434.1870752 350.39379883 434.28344727 C355.0359373 435.2058409 359.27766606 436.79990768 363.69921875 438.46484375 C364.64000778 438.81418976 365.58079681 439.16353577 366.5500946 439.52346802 C369.59778784 440.65647127 372.64263436 441.79692225 375.6875 442.9375 C377.77210583 443.71397687 379.8569046 444.48993595 381.94189453 445.26538086 C386.06332445 446.79896285 390.18373518 448.33523148 394.30322266 449.87402344 C401.65466403 452.6192759 409.01457251 455.34145946 416.375 458.0625 C418.48706135 458.84483025 420.59905103 459.62735403 422.7109375 460.41015625 C423.96849854 460.87627319 423.96849854 460.87627319 425.25146484 461.35180664 C425.82848145 461.56571045 426.40549805 461.77961426 427 462 C425.32156282 465.61358202 423.59403001 467.39796729 420.4375 469.875 C419.45394531 470.65875 418.47039063 471.4425 417.45703125 472.25 C416.90869629 472.68441406 416.36036133 473.11882812 415.79541016 473.56640625 C412.37435182 476.29804271 409.00266793 479.09003785 405.625 481.875 C404.89579346 482.47513916 404.16658691 483.07527832 403.4152832 483.69360352 C398.419215 487.81118112 393.46352708 491.97326842 388.53173828 496.16748047 C384.33671818 499.73028404 380.08085722 503.21325575 375.8125 506.6875 C372.68200088 509.26146594 369.5883659 511.87579466 366.5 514.5 C361.7308879 518.55012599 356.92087568 522.54352113 352.0703125 526.49609375 C342.49138111 534.30791948 332.94770048 542.15972837 323.53173828 550.16748047 C319.33671818 553.73028404 315.08085722 557.21325575 310.8125 560.6875 C307.68200334 563.26146392 304.58827539 565.87569086 301.5 568.5 C296.65179875 572.61983299 291.75154155 576.66795964 286.81640625 580.68359375 C283.66214808 583.27787266 280.5479702 585.91606265 277.4375 588.5625 C272.88715684 592.43241802 268.27167165 596.19959897 263.58984375 599.91015625 C259.96869031 602.83220315 256.43045431 605.84821486 252.88671875 608.86328125 C249.45428391 611.78004513 245.99407185 614.65693426 242.5 617.5 C237.29034298 621.74095066 232.16173527 626.07221608 227.04296875 630.421875 C226.03878906 631.27265625 225.03460937 632.1234375 224 633 C223.45553223 633.47501953 222.91106445 633.95003906 222.35009766 634.43945312 C218.21740946 638 218.21740946 638 216 638 C219.41934345 648.3927823 222.87607961 658.76969338 226.54296875 669.078125 C226.83594849 669.90381485 227.12892822 670.7295047 227.43078613 671.58021545 C228.99439752 675.96758208 230.59011591 680.34086211 232.22314453 684.70288086 C235.42570582 693.32383194 238.30954599 701.7292794 240.19921875 710.73828125 C242.84149401 723.47478864 242.84149401 723.47478864 250 734 C259.59422929 739.8295825 272.13718232 740.61140927 283.04156494 741.92796326 C291.59453053 742.97326094 299.63648704 745.03360127 307.875 747.5 C309.17843459 747.87863814 310.48214414 748.2563311 311.78613281 748.63305664 C338.71429331 756.51141407 365.23292804 765.6716436 390 779 C390.61020996 779.32709961 391.22041992 779.65419922 391.84912109 779.99121094 C404.13470937 786.6382038 414.81031981 794.45131922 425 804 C424.34 804.33 423.68 804.66 423 805 C420.64326438 803.77548201 418.39809197 802.49120364 416.125 801.125 C386.90197516 784.30370155 353.60423004 774.88343672 321 767 C319.79682129 766.70818848 318.59364258 766.41637695 317.35400391 766.11572266 C227.61112541 744.70752504 132.91341473 736.97748871 40.83203125 736.796875 C38.59663374 736.78988926 36.36123641 736.78284837 34.12583923 736.77575684 C27.02139026 736.75649676 19.91697224 736.75158021 12.8125 736.75 C11.60072586 736.74941086 10.38895172 736.74882172 9.14045715 736.74821472 C-29.67114187 736.73490578 -68.27432839 737.28265165 -107 740 C-109.16404263 740.14629039 -111.32810506 740.29228809 -113.4921875 740.43798828 C-201.05691647 746.42562291 -295.83506153 756.17725839 -395.7644043 801.25854492 C-400.70344811 804 -400.70344811 804 -404 804 C-373.20237288 767.38743629 -301.15769675 745.96920536 -255 740 C-254.86428589 739.4837355 -254.72857178 738.96747101 -254.58874512 738.43556213 C-252.07123854 729.46356343 -248.49942495 720.91215759 -245.03125 712.27734375 C-244.34725248 710.56459495 -243.66370735 708.85166543 -242.98059082 707.13856506 C-241.19011283 702.65098201 -239.39501234 698.16526484 -237.59844971 693.68011475 C-234.72279685 686.50017024 -231.85207249 679.31826417 -228.98545837 672.1347065 C-227.98907115 669.64070842 -226.98937773 667.14805445 -225.98937988 664.65550232 C-223.12398526 657.49390689 -220.30581786 650.36645343 -218 643 C-218.94746094 642.23429688 -218.94746094 642.23429688 -219.9140625 641.453125 C-225.34245089 637.0415817 -230.7016979 632.5663477 -236 628 C-240.12466459 624.44544729 -244.27207758 620.9320782 -248.5 617.5 C-252.7279248 614.06791987 -256.8752789 610.55448829 -261 607 C-266.01314773 602.68065728 -271.08537515 598.44902723 -276.22265625 594.27734375 C-279.90759143 591.25580056 -283.53568321 588.16964049 -287.16650391 585.08349609 C-290.55973475 582.20442157 -293.9827672 579.36788508 -297.4375 576.5625 C-302.30129025 572.60491812 -307.05881231 568.53457554 -311.80834961 564.44165039 C-315.33298919 561.41054711 -318.89039882 558.43014684 -322.5 555.5 C-326.7279248 552.06791987 -330.8752789 548.55448829 -335 545 C-340.01314773 540.68065728 -345.08537515 536.44902723 -350.22265625 532.27734375 C-353.90759143 529.25580056 -357.53568321 526.16964049 -361.16650391 523.08349609 C-364.55973475 520.20442157 -367.9827672 517.36788508 -371.4375 514.5625 C-376.30049424 510.60556582 -381.05700203 506.53564058 -385.80615234 502.44384766 C-390.21537485 498.65261637 -394.69358516 494.95582077 -399.20703125 491.2890625 C-406.90445586 484.98040401 -414.4563412 478.49105525 -422 472 C-418.74649616 469.33193784 -415.38188054 467.6739434 -411.55078125 465.953125 C-410.59380341 465.52058159 -410.59380341 465.52058159 -409.61749268 465.07929993 C-407.51789749 464.13152963 -405.41527179 463.19069886 -403.3125 462.25 C-401.84931443 461.59153882 -400.38634547 460.93259611 -398.92358398 460.27319336 C-396.64006158 459.24391442 -394.35635516 458.21506359 -392.0717926 457.18809509 C-386.55317717 454.70626518 -381.04726108 452.19772605 -375.546875 449.67578125 C-374.02566567 448.97942467 -372.50442591 448.28313456 -370.9831543 447.58691406 C-368.77884923 446.57806745 -366.57501674 445.56825852 -364.37271118 444.55505371 C-362.33466357 443.61789845 -360.29454775 442.68539677 -358.25390625 441.75390625 C-357.09189697 441.22095947 -355.9298877 440.6880127 -354.73266602 440.13891602 C-352 439 -352 439 -350 439 C-358.72572512 413.6776822 -367.47709613 388.36538266 -376.4375 363.125 C-377.12289612 361.19311949 -377.80828017 359.26123471 -378.49365234 357.3293457 C-379.90267313 353.35860973 -381.31206221 349.38800466 -382.72167969 345.41748047 C-383.27148499 343.86876251 -383.27148499 343.86876251 -383.83239746 342.28875732 C-384.64455744 340.00116631 -385.45682095 337.71361206 -386.26916504 335.42608643 C-388.93951706 327.90497718 -391.60482703 320.38211986 -394.26419067 312.8571167 C-395.12545788 310.42278118 -395.98845765 307.9890579 -396.85324097 305.55596924 C-398.05362916 302.17815101 -399.24819522 298.79832775 -400.44140625 295.41796875 C-400.80299835 294.40477066 -401.16459045 293.39157257 -401.53713989 292.34767151 C-401.8633432 291.41978317 -402.18954651 290.49189484 -402.52563477 289.53588867 C-402.81189224 288.72802414 -403.09814972 287.92015961 -403.39308167 287.08781433 C-404 285 -404 285 -404 282 C-396.24446697 282.68636607 -388.77834256 284.20552553 -381.17431641 285.8515625 C-379.79864405 286.14602613 -378.42288889 286.44010314 -377.04705811 286.73382568 C-373.33588988 287.52729436 -369.62592304 288.32625044 -365.91617632 289.12633514 C-362.02649634 289.96433528 -358.13578811 290.79753512 -354.24520874 291.63134766 C-347.71995634 293.03053876 -341.19543267 294.43308548 -334.67138672 295.83789062 C-327.12794278 297.46218019 -319.58359259 299.08220131 -312.03869498 300.6997242 C-303.9974531 302.42366648 -295.95677281 304.15021557 -287.91631269 305.87779999 C-285.60078646 306.37516669 -283.28516738 306.87209922 -280.96953201 307.36895752 C-277.33629274 308.14870028 -273.70344121 308.93022524 -270.0708847 309.7131424 C-268.10011983 310.13749823 -266.1289981 310.56019567 -264.15786743 310.98284912 C-262.98876831 311.23520325 -261.81966919 311.48755737 -260.61514282 311.74755859 C-259.59718943 311.9665683 -258.57923603 312.185578 -257.53043556 312.41122437 C-255 313 -255 313 -252 314 C-251.82893738 313.45110107 -251.65787476 312.90220215 -251.48162842 312.33666992 C-249.70236648 306.79555252 -247.56373276 301.57010269 -245.078125 296.3125 C-244.51213341 295.09910194 -244.51213341 295.09910194 -243.93470764 293.8611908 C-243.12780982 292.13246251 -242.31876127 290.40473669 -241.50772095 288.677948 C-239.36913909 284.12446496 -237.24620294 279.56368827 -235.12109375 275.00390625 C-234.69189133 274.08412491 -234.2626889 273.16434357 -233.82048035 272.21669006 C-229.59343007 263.1497647 -225.44211958 254.04913434 -221.3125 244.9375 C-220.98713257 244.22005615 -220.66176514 243.5026123 -220.32653809 242.76342773 C-218.54887118 238.84325814 -216.77328274 234.92215522 -215 231 C-212 231 -212 231 -210.203125 232.46875 C-209.55859375 233.1390625 -208.9140625 233.809375 -208.25 234.5 C-207.61578125 235.1496875 -206.9815625 235.799375 -206.328125 236.46875 C-204.41079221 238.55336686 -202.54158211 240.66379533 -200.68359375 242.80078125 C-197.15296643 246.85397537 -193.50461825 250.7816147 -189.8125 254.6875 C-186.01897384 258.71133893 -182.22830098 262.73581801 -178.5 266.8203125 C-177.96012451 267.41110596 -177.42024902 268.00189941 -176.86401367 268.6105957 C-175.85873289 269.7133199 -174.85611522 270.81848017 -173.85668945 271.92651367 C-171.40432203 274.6133983 -168.93803242 276.86696124 -166 279 C-166.1752269 278.12147716 -166.3504538 277.24295431 -166.5309906 276.33780956 C-170.7903279 254.98204103 -175.04650583 233.62564499 -179.29914856 212.26854229 C-181.35575244 201.94051721 -183.41343337 191.61270889 -185.47363281 181.28540039 C-187.26885924 172.28632685 -189.06208228 163.28685685 -190.85287952 154.28690082 C-191.80155575 149.51953553 -192.75124836 144.75237772 -193.70333862 139.98569298 C-194.59881673 135.50227517 -195.49162211 131.01833357 -196.38235092 126.53396988 C-196.71030468 124.88538305 -197.03924736 123.2369926 -197.36923599 121.58881187 C-197.81854319 119.34391891 -198.26433407 117.09835583 -198.70922852 114.85258484 C-198.95995621 113.59433742 -199.2106839 112.33608999 -199.4690094 111.03971386 C-200 108 -200 108 -200 105 C-195.69410134 106.56058187 -191.85517969 108.72324501 -187.9375 111.0625 C-187.21199951 111.49240234 -186.48649902 111.92230469 -185.73901367 112.36523438 C-177.52571289 117.25004441 -169.36782216 122.22731244 -161.20483398 127.19555664 C-151.87184131 132.87431076 -142.51160315 138.50639568 -133.13626099 144.1149292 C-126.05613572 148.35053236 -118.99002345 152.60694746 -111.953125 156.9140625 C-111.30154419 157.3122821 -110.64996338 157.71050171 -109.9786377 158.12078857 C-106.85098774 160.03232666 -103.72594258 161.94786294 -100.60546875 163.87109375 C-98.95224609 164.88236328 -98.95224609 164.88236328 -97.265625 165.9140625 C-96.29399414 166.5117041 -95.32236328 167.1093457 -94.32128906 167.72509766 C-92.14922377 169.16046497 -92.14922377 169.16046497 -90 169 C-89.6690332 168.35788574 -89.33806641 167.71577148 -88.99707031 167.05419922 C-82.74868693 154.94661256 -76.43957691 142.88556552 -69.87402344 130.94677734 C-65.15815494 122.34572823 -60.57756412 113.67512398 -56 105 C-50.47388767 94.52760451 -44.89827648 84.08846212 -39.1953125 73.7109375 C-35.18852315 66.39854694 -31.33736842 59.00992973 -27.50073242 51.60717773 C-23.58635871 44.07403544 -19.54222851 36.61828445 -15.45605469 29.17724609 C-10.16628521 19.52367936 -5.07082261 9.76994606 0 0 Z M-20.90234375 709.09375 C-21.6249086 709.20473022 -22.34747345 709.31571045 -23.0919342 709.43005371 C-25.3745817 709.78179374 -27.65602072 710.14076888 -29.9375 710.5 C-31.49536822 710.74136671 -33.05331036 710.98225674 -34.61132812 711.22265625 C-38.40842875 711.80959881 -42.20446383 712.40302786 -46 713 C-46 713.33 -46 713.66 -46 714 C-23.64950519 714.18175681 -1.33890346 713.65395731 21 713 C21 712.67 21 712.34 21 712 C16.64710244 711.3248677 12.29250257 710.66140624 7.9375 710 C6.70837891 709.80921875 5.47925781 709.6184375 4.21289062 709.421875 C3.01728516 709.24140625 1.82167969 709.0609375 0.58984375 708.875 C-0.50465088 708.70742188 -1.59914551 708.53984375 -2.72680664 708.3671875 C-8.93560744 707.67068296 -14.75738064 708.11363883 -20.90234375 709.09375 Z " fill="#EA5E00" transform="translate(666,268)"></path><path d="M0 0 C3.99455539 0.91541894 7.08994125 2.77744125 10 5.6875 C10.07934535 7.60354323 10.13840464 9.52044314 10.1875 11.4375 C10.5928789 16.44607528 10.5928789 16.44607528 13.3125 20.625 C14.99436668 21.7372294 14.99436668 21.7372294 17 22.6875 C17.8146875 23.10257813 18.629375 23.51765625 19.46875 23.9453125 C25.97333998 26.9295612 32.54368314 28.64128542 39.49365234 30.16601562 C45.70745615 31.54840307 51.62784341 33.44186434 57.6328125 35.54296875 C60.51418598 36.52236832 63.36610907 37.31442878 66.3125 38.0625 C71.14931369 39.45944285 74.78731876 42.04760297 78.7734375 45.06640625 C80.79223839 46.53623497 82.73628345 47.64867117 85 48.6875 C84.67773438 47.54667969 84.35546875 46.40585937 84.0234375 45.23046875 C82.91656971 40.78242749 82.63316743 36.56967659 82.625 32 C82.60050781 31.26716797 82.57601562 30.53433594 82.55078125 29.77929688 C82.53127373 26.17365676 82.86903727 23.91097768 84.703125 20.78125 C90.09655922 15.86478615 98.49603117 15.08835347 105.5859375 15.3359375 C112.46238363 16.33736169 118.15668262 19.84418262 123 24.6875 C126.81389757 30.19723224 127.54495235 34.0055886 127.25 40.625 C127.23195313 41.40423828 127.21390625 42.18347656 127.1953125 42.98632812 C127.14866383 44.88726131 127.07693829 46.78755169 127 48.6875 C128.32 48.6875 129.64 48.6875 131 48.6875 C130.979375 49.76 130.95875 50.8325 130.9375 51.9375 C131.54996287 55.70200996 131.54996287 55.70200996 133.89453125 56.8671875 C135.49791468 57.51066808 137.10908764 58.13499662 138.7265625 58.7421875 C141.96758608 60.08982961 143.71861395 62.04589509 146 64.6875 C146.86625 65.56921875 146.86625 65.56921875 147.75 66.46875 C152.25050063 71.19427566 154.3886471 75.4032237 156 81.6875 C156.33 82.6775 156.66 83.6675 157 84.6875 C157.13552493 86.75037615 157.21535758 88.81707121 157.26538086 90.88378906 C157.29889145 92.1623175 157.33240204 93.44084595 157.3669281 94.75811768 C157.38278898 95.44133339 157.39864986 96.1245491 157.41499138 96.82846832 C157.46531252 98.97310331 157.52207738 101.11747878 157.58070374 103.26190186 C157.7464135 109.35877698 157.90202728 115.45588123 158.04956055 121.55322266 C158.14031211 125.28516025 158.23990991 129.01677934 158.34482002 132.74834442 C158.38288437 134.16592505 158.41756742 135.58360089 158.4487133 137.0013504 C158.49260883 138.99231085 158.54869893 140.98299091 158.60522461 142.97363281 C158.63329697 144.10375793 158.66136932 145.23388306 158.69029236 146.39825439 C159.03113608 150.01818025 159.93367803 153.21849174 161 156.6875 C161.29956055 159.14355469 161.29956055 159.14355469 161.38671875 161.359375 C162.00280033 172.00759588 163.20177063 179.09351193 170 187.6875 C172.67847539 192.24506785 172.34227604 196.52541685 172.3125 201.6875 C172.30976074 202.64156738 172.30702148 203.59563477 172.30419922 204.57861328 C172.21710705 210.45583308 171.54082565 215.54171384 169.83227539 221.17724609 C165.59030126 239.06844707 166.68117598 258.40836849 166.73925781 276.69921875 C166.75080166 280.37129658 166.74396228 284.04308663 166.73211288 287.71515465 C166.72485823 290.58924504 166.72719614 293.46326787 166.73236847 296.33736038 C166.73431883 298.34074345 166.72833056 300.34412932 166.72210693 302.34750366 C166.75703644 309.14263203 167.30450411 315.11211221 169 321.6875 C169.22162894 324.44779977 169.23845229 327.16998623 169.1875 329.9375 C169.18685547 330.618125 169.18621094 331.29875 169.18554688 332 C169.16161791 334.74385477 169.06493765 337.36440858 168.5234375 340.05859375 C167.70467518 344.17073583 167.6277365 348.31791563 167.4375 352.5 C167.39431641 353.38365234 167.35113281 354.26730469 167.30664062 355.17773438 C167.20108464 357.34749623 167.10008929 359.5174791 167 361.6875 C165.35 361.6875 163.7 361.6875 162 361.6875 C162 363.0075 162 364.3275 162 365.6875 C153.32745081 365.08452691 144.66149795 364.43308682 136 363.6875 C136 363.0275 136 362.3675 136 361.6875 C132.37 361.6875 128.74 361.6875 125 361.6875 C124.85304688 360.05554688 124.85304688 360.05554688 124.703125 358.390625 C123.76343411 348.49106313 123.76343411 348.49106313 120.9375 339 C118.80412535 333.31100094 118.64579766 328.00268354 118.5 322 C118.12804296 308.12413101 115.07161013 295.79419053 110.2824707 282.80371094 C104.84104085 267.54777942 103.44368549 252.87991784 103.5 236.8125 C103.51206321 233.27290012 103.49847238 229.73478104 103.46875 226.1953125 C103.48006958 225.39747345 103.49138916 224.5996344 103.50305176 223.77761841 C103.4706633 220.24550387 103.31973469 218.12456932 101.20507812 215.23388672 C98.30179891 213.19786252 95.43134097 212.47934792 92 211.6875 C92 213.6675 92 215.6475 92 217.6875 C91.34 217.6875 90.68 217.6875 90 217.6875 C89.67 216.924375 89.34 216.16125 89 215.375 C85.95193746 211.27916597 81.82510469 210.8009857 77 209.6875 C76.875 203.9375 76.875 203.9375 78 201.6875 C78.25661373 199.98738812 78.46459693 198.2798252 78.6484375 196.5703125 C78.76517822 195.50224365 78.88191895 194.4341748 79.00219727 193.33374023 C79.12522217 192.17173096 79.24824707 191.00972168 79.375 189.8125 C79.50511475 188.61246338 79.63522949 187.41242676 79.76928711 186.17602539 C80.1834653 182.34692938 80.5921041 178.5172699 81 174.6875 C81.26412464 172.22523914 81.52844381 169.76299914 81.79296875 167.30078125 C82.04953489 164.90886014 82.30604599 162.51693313 82.5625 160.125 C82.75175049 158.35987061 82.75175049 158.35987061 82.94482422 156.55908203 C83.47781065 151.58290781 84.00926995 146.6066563 84.52734375 141.62890625 C85.4494992 132.90260076 86.60223706 124.24291036 88.03515625 115.58398438 C88.83923423 110.54813514 89.12839176 105.7881545 89 100.6875 C88.32453125 100.708125 87.6490625 100.72875 86.953125 100.75 C86.06109375 100.729375 85.1690625 100.70875 84.25 100.6875 C83.36828125 100.6875 82.4865625 100.6875 81.578125 100.6875 C77.95688541 99.28289798 77.62442748 97.14893015 76.10449219 93.72412109 C74.34596304 90.48149286 71.57979155 88.83269141 68.5 87 C67.85345459 86.59120605 67.20690918 86.18241211 66.54077148 85.76123047 C65.1268232 84.86759786 63.70788645 83.98182093 62.28466797 83.10302734 C45.08911472 72.44906092 28.53108929 61.34506766 13.83984375 47.3828125 C8.42922078 42.24755824 2.75238835 37.43322039 -3 32.6875 C-10.73585038 35.98010451 -16.3956797 43.66929458 -21.1875 50.3125 C-26.56528774 57.71766613 -32.87059668 64.17784641 -39.18701172 70.78173828 C-42.70180621 74.47639029 -46.13694585 78.24224609 -49.5625 82.01953125 C-51.12201321 83.72649843 -52.70361864 85.413701 -54.3125 87.07421875 C-59.153595 92.17338683 -61.87159277 96.98021668 -64 103.6875 C-65.98 103.3575 -67.96 103.0275 -70 102.6875 C-70 103.6775 -70 104.6675 -70 105.6875 C-70.56589844 105.95304688 -71.13179687 106.21859375 -71.71484375 106.4921875 C-72.44832031 106.84539062 -73.18179688 107.19859375 -73.9375 107.5625 C-74.66839844 107.91054688 -75.39929688 108.25859375 -76.15234375 108.6171875 C-78.16332459 109.5559977 -78.16332459 109.5559977 -79 111.6875 C-80.65 111.3575 -82.3 111.0275 -84 110.6875 C-83.54625 111.161875 -83.0925 111.63625 -82.625 112.125 C-81.00280224 114.68308108 -80.74366518 115.85132328 -80.3125 118.75 C-79.27596787 124.16498682 -76.34553254 127.75622063 -72.97265625 132.01171875 C-70.02912373 136.00443118 -68 139.16510277 -68 144.1875 C-69.16810619 148.27587166 -70.62268954 151.11648438 -74 153.6875 C-75.7119339 154.33889623 -77.44337831 154.94046963 -79.1875 155.5 C-82.7766548 156.70848832 -82.7766548 156.70848832 -85.01953125 159.546875 C-85.54021535 161.93440208 -85.79431127 164.25289337 -86 166.6875 C-86.29526837 168.44048969 -86.6085077 170.19052538 -86.9375 171.9375 C-87.09992188 172.84886719 -87.26234375 173.76023437 -87.4296875 174.69921875 C-90.16067653 189.00885307 -90.16067653 189.00885307 -92 192.6875 C-91.91031453 194.1919015 -91.75408617 195.69265482 -91.5625 197.1875 C-91.17100824 200.75728668 -90.87850007 204.28349617 -90.8125 207.875 C-90.79832031 208.63167969 -90.78414062 209.38835937 -90.76953125 210.16796875 C-91 212.6875 -91 212.6875 -91.9140625 215.54345703 C-97.81535566 235.86538269 -96.45506474 259.34979677 -96.3225708 280.33850098 C-96.30909657 283.23047894 -96.31441879 286.12230406 -96.31944466 289.01429939 C-96.34352971 307.48541501 -95.93479157 325.8903316 -93.37231445 344.21411133 C-93 347.6875 -93 347.6875 -94 349.6875 C-96.94140625 350.1015625 -96.94140625 350.1015625 -100.5625 350.3125 C-102.35880859 350.42464844 -102.35880859 350.42464844 -104.19140625 350.5390625 C-105.11824219 350.58804687 -106.04507813 350.63703125 -107 350.6875 C-107.13277344 351.61433594 -107.26554688 352.54117187 -107.40234375 353.49609375 C-107.57894531 354.69363281 -107.75554688 355.89117188 -107.9375 357.125 C-108.11152344 358.31996094 -108.28554688 359.51492188 -108.46484375 360.74609375 C-109 363.6875 -109 363.6875 -110 364.6875 C-111.31691466 364.91358057 -112.64394468 365.08158103 -113.97265625 365.22265625 C-114.79056641 365.30966797 -115.60847656 365.39667969 -116.45117188 365.48632812 C-117.31291016 365.57333984 -118.17464844 365.66035156 -119.0625 365.75 C-120.31450195 365.88631836 -120.31450195 365.88631836 -121.59179688 366.02539062 C-126.75832621 366.56097005 -131.80640816 366.77756229 -137 366.6875 C-137.3690205 355.16585991 -137.3690205 355.16585991 -135 349.6875 C-136.134375 349.8525 -137.26875 350.0175 -138.4375 350.1875 C-142.97060294 350.76326084 -147.43747238 350.78255266 -152 350.6875 C-151.56269704 343.7366846 -151.03201096 336.8119435 -150.28782654 329.8878479 C-149.09551977 318.70764093 -148.4202211 307.54317843 -147.9375 296.3125 C-147.78220413 292.70438461 -147.6263415 289.0962972 -147.46875 285.48828125 C-147.43152328 284.62267075 -147.39429657 283.75706024 -147.35594177 282.86521912 C-147.1463335 278.20196225 -146.84983837 273.56616204 -146.40625 268.91796875 C-145.2384765 256.03572377 -147.5589099 245.87709298 -152.22802734 233.81201172 C-155.43746299 224.97946619 -155.36702382 214.62047663 -151.40234375 206.0703125 C-148.17466157 200.58595002 -144.35183122 195.53315379 -139.33203125 191.59375 C-136.03486915 188.89858232 -135.6737406 186.8646917 -135 182.6875 C-135.18316261 180.06747838 -135.48755784 177.51454565 -135.90625 174.921875 C-136 172.6875 -136 172.6875 -134 169.6875 C-133.82898304 166.91934408 -133.7673364 164.26448777 -133.8125 161.5 C-133.81314453 160.76974609 -133.81378906 160.03949219 -133.81445312 159.28710938 C-133.84326301 155.67306903 -134.02017162 152.1468032 -134.4921875 148.5625 C-135.86888794 138.05721663 -135.38115039 129.36747418 -131 119.6875 C-130.6184375 118.80320312 -130.236875 117.91890625 -129.84375 117.0078125 C-128.91963894 114.88895785 -127.97324675 112.78412199 -127 110.6875 C-128.32 110.3575 -129.64 110.0275 -131 109.6875 C-131 103.84775118 -128.09207903 101.22059445 -124.203125 97.32421875 C-121.75944288 95.50878824 -119.99365545 95.04862277 -117 94.6875 C-117.04125 93.90375 -117.0825 93.12 -117.125 92.3125 C-117 89.6875 -117 89.6875 -115 87.6875 C-111.9609375 87.4921875 -111.9609375 87.4921875 -108.375 87.5625 C-107.18648437 87.58054687 -105.99796875 87.59859375 -104.7734375 87.6171875 C-103.85820313 87.64039063 -102.94296875 87.66359375 -102 87.6875 C-101.34 86.0375 -100.68 84.3875 -100 82.6875 C-100.66 82.6875 -101.32 82.6875 -102 82.6875 C-101.896875 81.800625 -101.79375 80.91375 -101.6875 80 C-102.10088172 75.61815377 -103.83689871 74.62991981 -107 71.6875 C-108.71628717 68.84674883 -109.82222676 66.39859296 -110.625 63.1875 C-109.74099917 59.65149668 -107.89901894 58.07142312 -105.05859375 55.87109375 C-102.27427132 54.27024044 -100.23551866 53.86020807 -97.046875 54.0703125 C-93.72753403 55.07118249 -91.44679089 57.28268055 -88.8203125 59.4765625 C-86.96235764 61.01497914 -86.96235764 61.01497914 -84.1875 60.1875 C-83.1046875 59.445 -83.1046875 59.445 -82 58.6875 C-77.95688404 55.99208936 -74.75134778 56.0121018 -70 56.6875 C-67.38495462 57.78305635 -65.3622095 59.07918715 -63 60.6875 C-63 61.3475 -63 62.0075 -63 62.6875 C-56.42978693 60.96672991 -52.4174661 57.50238807 -48.25 52.375 C-43.02405622 46.12541775 -36.26065751 41.54930218 -29.65478516 36.86889648 C-27.8405569 35.58239564 -26.03523792 34.28409868 -24.23046875 32.984375 C-22.36736452 31.65970113 -20.48359149 30.36134726 -18.55078125 29.140625 C-16.53160896 27.74809238 -15.25531762 26.79999346 -14 24.6875 C-13.74350826 21.56257559 -13.87758272 18.58130903 -14.0625 15.453125 C-14 12.6875 -14 12.6875 -11.875 9.875 C-10.92625 9.153125 -9.9775 8.43125 -9 7.6875 C-8.00529832 6.42878903 -7.02670861 5.15721936 -6.0625 3.875 C-3.9081845 1.35153069 -3.34833895 0.76732768 0 0 Z " fill="#FEFEFD" transform="translate(657,623.3125)"></path><path d="M0 0 C5.21832485 1.13764428 9.04808014 3.6979595 12.875 7.375 C13.37 8.365 13.37 8.365 13.875 9.375 C13.25625 9.21 12.6375 9.045 12 8.875 C9.91436614 8.29865356 9.91436614 8.29865356 7.875 8.375 C8.349375 8.82875 8.82375 9.2825 9.3125 9.75 C12.41438957 12.97596515 12.26019371 16.4935275 12.5625 20.75 C12.62244141 21.42289063 12.68238281 22.09578125 12.74414062 22.7890625 C13.01528969 26.56286315 13.07786852 29.22489801 10.875 32.375 C9.20833333 34.04166667 7.54166667 35.70833333 5.875 37.375 C3.51944602 40.35870171 2.89996927 41.85978049 2.71484375 45.6796875 C4.23666201 50.52696048 6.29496213 51.39886167 10.61914062 53.75390625 C11.95235352 54.43259766 11.95235352 54.43259766 13.3125 55.125 C15.06436277 56.05133093 16.81321463 56.98338478 18.55859375 57.921875 C19.33775146 58.32245117 20.11690918 58.72302734 20.91967773 59.13574219 C22.875 60.375 22.875 60.375 24.875 63.375 C25.01745897 66.14155324 25.06269445 68.80153306 25 71.5625 C24.99097656 72.31208984 24.98195313 73.06167969 24.97265625 73.83398438 C24.94912578 75.68112654 24.91325561 77.52810412 24.875 79.375 C23.39 79.87 23.39 79.87 21.875 80.375 C21.875 83.675 21.875 86.975 21.875 90.375 C22.535 90.375 23.195 90.375 23.875 90.375 C23.91625 89.6325 23.9575 88.89 24 88.125 C25.26445232 84.15100698 27.25944357 83.34712169 30.875 81.375 C33.51794316 80.26467918 36.16161799 79.31064897 38.875 78.375 C38.05 77.9625 37.225 77.55 36.375 77.125 C35.55 76.5475 34.725 75.97 33.875 75.375 C33.875 74.055 33.875 72.735 33.875 71.375 C36.515 71.375 39.155 71.375 41.875 71.375 C41.11089447 68.18927258 41.11089447 68.18927258 38.33203125 66.3046875 C34.81355187 62.10936233 35.20500838 58.79667315 35.5625 53.5 C35.62083008 52.60120117 35.67916016 51.70240234 35.73925781 50.77636719 C36.20117496 45.99385616 36.6381099 42.1933249 40.125 38.625 C45.56931826 35.16221739 51.68790652 35.38979403 57.875 36.375 C61.97309059 37.64295623 64.30391986 39.53741579 66.75 43.125 C68.07088021 46.94087616 68.46699396 50.36294062 68.875 54.375 C69.205 54.705 69.535 55.035 69.875 55.375 C70.29946244 60.63833426 70.29946244 60.63833426 69.875 63.375 C68.55712715 64.39528865 67.22289347 65.39471384 65.875 66.375 C65.19999383 69.06962465 65.05796447 71.58479189 64.875 74.375 C68.175 74.705 71.475 75.035 74.875 75.375 C74.215 77.025 73.555 78.675 72.875 80.375 C74.23625 80.4678125 74.23625 80.4678125 75.625 80.5625 C79.85286411 81.61946603 80.47121459 82.75104215 82.875 86.375 C84.42660484 89.77059936 85.71953976 93.24455753 87 96.75 C87.34675781 97.67039062 87.69351563 98.59078125 88.05078125 99.5390625 C93.65744833 114.57610065 93.65744833 114.57610065 91.875 119.375 C90.885 120.035 89.895 120.695 88.875 121.375 C88.45349342 127.03627608 89.18381966 132.3556542 90.15234375 137.92578125 C90.28314835 138.70640427 90.41395294 139.48702728 90.54872131 140.29130554 C90.82393626 141.92624836 91.10224947 143.56067244 91.38354492 145.19458008 C91.81412536 147.69694593 92.23499969 150.20079936 92.65429688 152.70507812 C92.92391917 154.29957396 93.19408224 155.89397847 93.46484375 157.48828125 C93.59092514 158.23515701 93.71700653 158.98203278 93.84690857 159.75154114 C94.35992466 162.72026052 94.92056511 165.51169534 95.875 168.375 C96.48961444 175.02938332 95.87193008 180.38113983 92.875 186.375 C90.6875 187.875 90.6875 187.875 88.875 188.375 C88.90755208 186.32421875 88.94010417 184.2734375 88.97265625 182.22265625 C89.08061184 180.35767859 89.08061184 180.35767859 87.875 179.375 C87.67816307 177.56923513 87.48814104 175.76249457 87.33056641 173.95288086 C86.62178242 165.92644937 85.35049796 158.15535403 83.5 150.3125 C83.3030957 149.4575293 83.10619141 148.60255859 82.90332031 147.72167969 C81.49051038 141.95588779 79.45690211 136.71678312 76.875 131.375 C77.30899435 142.06024025 77.91320828 153.06011226 81.97265625 163.0859375 C82.875 165.375 82.875 165.375 82.875 168.375 C82.215 168.705 81.555 169.035 80.875 169.375 C80.30009912 177.20003976 81.59446025 183.53977281 83.92578125 191 C84.99500201 194.8016738 85.39513448 198.38497881 85.66015625 202.30859375 C85.92944571 204.89866875 86.71391696 207.05283393 87.875 209.375 C86.32426853 210.92573147 84.84437747 210.50469128 82.69140625 210.5078125 C81.84642578 210.50910156 81.00144531 210.51039063 80.13085938 210.51171875 C79.24205078 210.50785156 78.35324219 210.50398437 77.4375 210.5 C76.11008789 210.50580078 76.11008789 210.50580078 74.75585938 210.51171875 C73.90958984 210.51042969 73.06332031 210.50914062 72.19140625 210.5078125 C71.41224854 210.50668457 70.63309082 210.50555664 69.83032227 210.50439453 C67.875 210.375 67.875 210.375 65.875 209.375 C65.015625 207.65234375 65.015625 207.65234375 64.125 205.3125 C63.61066406 203.97832031 63.61066406 203.97832031 63.0859375 202.6171875 C62.1702674 200.16555465 61.25921212 197.71241279 60.3515625 195.2578125 C60.08698242 194.5450415 59.82240234 193.83227051 59.54980469 193.09790039 C59.02273009 191.6741876 58.49983788 190.24891842 57.98144531 188.82202148 C56.83931354 185.72340441 55.71665976 183.13748964 53.875 180.375 C53.71697571 184.89544621 53.71697571 184.89544621 54.37280273 189.33886719 C54.9153004 191.53839588 54.98881735 193.44057154 54.97265625 195.703125 C54.96782227 196.90195312 54.96782227 196.90195312 54.96289062 198.125 C54.95451172 198.95 54.94613281 199.775 54.9375 200.625 C54.93298828 201.46546875 54.92847656 202.3059375 54.92382812 203.171875 C54.91207961 205.23961401 54.89414522 207.30731624 54.875 209.375 C48.51422056 209.06959834 42.23409249 208.63643753 35.94921875 207.60546875 C34.67353027 207.39627808 34.67353027 207.39627808 33.37207031 207.18286133 C31.71931739 206.90335628 30.06864463 206.61111561 28.42089844 206.3034668 C15.91791778 204.18775434 3.32061017 206.94558442 -9.01953125 209.08984375 C-16.93520417 210.35890781 -24.16814995 210.33106834 -32.125 209.375 C-33.125 206.375 -33.125 206.375 -32.1875 203.1875 C-28.40135325 188.92461842 -30.88126861 169.65495127 -37.125 156.4375 C-44.77781342 140.00869905 -44.6698314 119.18317026 -42.36953735 101.50057983 C-41.96940418 98.02252218 -41.81817601 94.53902968 -41.66015625 91.04296875 C-41.58174764 89.48761164 -41.5029608 87.93227356 -41.42382812 86.37695312 C-41.30363827 83.95662065 -41.18629823 81.53625745 -41.07543945 79.11547852 C-40.96604693 76.75748817 -40.84524108 74.40030503 -40.72265625 72.04296875 C-40.69236832 71.31796677 -40.66208038 70.59296478 -40.63087463 69.84599304 C-40.43308999 66.20630465 -40.19552899 64.48079349 -38.125 61.375 C-38.125 60.055 -38.125 58.735 -38.125 57.375 C-38.785 57.375 -39.445 57.375 -40.125 57.375 C-40.62496377 49.32456293 -37.60332584 43.9000607 -33.125 37.375 C-29.95374296 34.35410429 -27.08687244 33.44495436 -22.6875 33.125 C-21.841875 33.2075 -20.99625 33.29 -20.125 33.375 C-20.42535156 32.84390625 -20.72570312 32.3128125 -21.03515625 31.765625 C-21.41542969 31.05921875 -21.79570313 30.3528125 -22.1875 29.625 C-22.57035156 28.92890625 -22.95320312 28.2328125 -23.34765625 27.515625 C-24.2562406 25.01359372 -24.00836837 23.8417645 -23.125 21.375 C-22.135 21.375 -21.145 21.375 -20.125 21.375 C-20.18300781 20.63894531 -20.24101563 19.90289063 -20.30078125 19.14453125 C-20.67270556 11.10033979 -20.67270556 11.10033979 -17.8125 7.3125 C-15.94206723 5.96404847 -14.04356442 4.65404294 -12.125 3.375 C-16.03902949 4.64441497 -17.91572873 5.88667694 -20.125 9.375 C-20.785 9.045 -21.445 8.715 -22.125 8.375 C-16.66466569 -1.79251906 -10.94455784 -1.65775374 0 0 Z " fill="#FEFDFD" transform="translate(639.125,771.625)"></path><path d="M0 0 C1.79280396 -0.01546875 1.79280396 -0.01546875 3.62182617 -0.03125 C23.99402969 0.1704966 42.88394771 6.87304784 57.80859375 20.91015625 C64.4712543 27.80734245 69.43434159 35.30938074 73.75 43.8125 C74.08854004 44.47838135 74.42708008 45.1442627 74.77587891 45.83032227 C76.64696102 49.68634053 77.77521184 53.17759511 78.25 57.4375 C74.79329268 58.60902378 71.33437878 59.77389077 67.875 60.9375 C66.89015625 61.27136719 65.9053125 61.60523438 64.890625 61.94921875 C63.47910156 62.42294922 63.47910156 62.42294922 62.0390625 62.90625 C61.16975098 63.19951172 60.30043945 63.49277344 59.40478516 63.79492188 C57.25 64.4375 57.25 64.4375 55.25 64.4375 C54.89808594 63.48230469 54.54617188 62.52710938 54.18359375 61.54296875 C48.25565263 45.85459417 40.76420014 33.06237677 25.25 25.4375 C8.7391703 18.82474423 -9.39000141 18.46237291 -26.1171875 24.69140625 C-37.92322023 30.20389227 -44.90117314 37.31543285 -49.75 49.4375 C-52.97175468 60.50414238 -51.7901021 74.65512384 -46.53125 84.78515625 C-37.20014685 100.3110751 -18.2824315 105.40245008 -1.78384399 109.83868408 C2.04790472 110.87162276 5.86680465 111.95047452 9.6875 113.0234375 C10.43416428 113.23221527 11.18082855 113.44099304 11.95011902 113.65609741 C30.5004202 118.85722233 48.61057792 124.80905039 64.25 136.4375 C65.796875 137.55125 65.796875 137.55125 67.375 138.6875 C79.96824503 150.73321264 84.07695524 166.96593965 84.5 183.9375 C84.00904285 203.63354573 77.97309796 219.61864993 63.6953125 233.33984375 C42.6091021 251.42817439 15.83378069 253.54738415 -10.75 252.4375 C-32.60233074 250.74301322 -54.02116168 241.07916192 -68.375 224.3125 C-75.10857726 215.71974034 -84.75 202.66836963 -84.75 191.4375 C-81.29372619 190.09878359 -77.83465703 188.76744608 -74.375 187.4375 C-73.39015625 187.0559375 -72.4053125 186.674375 -71.390625 186.28125 C-70.44960937 185.9203125 -69.50859375 185.559375 -68.5390625 185.1875 C-67.66975098 184.85234375 -66.80043945 184.5171875 -65.90478516 184.171875 C-63.75 183.4375 -63.75 183.4375 -61.75 183.4375 C-61.54955078 183.98575439 -61.34910156 184.53400879 -61.14257812 185.09887695 C-54.26868384 203.66891278 -46.56309872 218.40493597 -27.8046875 227.1875 C-8.40520859 235.12590569 14.49286647 234.44367635 33.921875 226.97265625 C44.1122822 222.27215152 51.73939959 215.39486094 56.3046875 205.046875 C60.95423315 192.02814718 60.46166066 177.61953676 55.18359375 164.859375 C46.95155897 148.88433721 30.03299595 143.7100306 13.95703125 138.43994141 C5.96201583 135.89165485 -2.10532768 133.62789874 -10.1875 131.375 C-30.74086164 125.60717629 -54.93739268 117.70023088 -67.0625 98.625 C-76.6724818 81.16198598 -78.12005404 61.50625794 -72.75 42.4375 C-66.17175026 25.28486751 -53.4859873 13.7079551 -37.04296875 6.203125 C-24.93925631 1.04515299 -13.0858046 0.09340451 0 0 Z " fill="#A79D93" transform="translate(1703.75,639.5625)"></path><path d="M0 0 C49.5 0 99 0 150 0 C150 6.6 150 13.2 150 20 C108.09 20 66.18 20 23 20 C23 47.72 23 75.44 23 104 C54.68 104 86.36 104 119 104 C119 110.6 119 117.2 119 124 C87.32 124 55.64 124 23 124 C23 156.67 23 189.34 23 223 C65.57 223 108.14 223 152 223 C152 229.6 152 236.2 152 243 C101.84 243 51.68 243 0 243 C0 162.81 0 82.62 0 0 Z " fill="#A59B91" transform="translate(1216,644)"></path><path d="M0 0 C49.5 0 99 0 150 0 C150 6.6 150 13.2 150 20 C107.76 20 65.52 20 22 20 C22 47.72 22 75.44 22 104 C54.01 104 86.02 104 119 104 C119 110.6 119 117.2 119 124 C86.99 124 54.98 124 22 124 C22 156.67 22 189.34 22 223 C64.9 223 107.8 223 152 223 C152 229.6 152 236.2 152 243 C101.84 243 51.68 243 0 243 C0 162.81 0 82.62 0 0 Z " fill="#A79D93" transform="translate(1847,644)"></path><path d="M0 0 C1.20970459 0.00523682 2.41940918 0.01047363 3.66577148 0.01586914 C4.97094727 0.0190918 6.27612305 0.02231445 7.62084961 0.02563477 C9.00952213 0.03399138 10.39819401 0.04245634 11.78686523 0.05102539 C13.17944179 0.05603873 14.57202005 0.06060193 15.96459961 0.06469727 C19.38456394 0.07653105 22.80444367 0.09301659 26.22436523 0.11352539 C29.31017494 7.54271393 31.96904907 15.06858151 34.49780273 22.70336914 C34.89773941 23.90327484 35.29767609 25.10318054 35.70973206 26.33944702 C36.78656709 29.5710972 37.85944605 32.80404728 38.93137741 36.03732681 C39.60557546 38.06974658 40.28098798 40.10175871 40.95681763 42.13363647 C46.6910514 59.37359657 52.37233086 76.62990833 57.9677124 93.91549683 C63.67364671 111.53541003 69.54044879 129.10097371 75.4104805 146.6666832 C81.91968033 166.14605859 88.37795751 185.64043975 94.69897461 205.18188477 C94.95233582 205.96468811 95.20569702 206.74749146 95.46673584 207.55401611 C95.95923138 209.07608189 96.45115217 210.59833379 96.94244385 212.12078857 C98.31863561 216.3717636 99.72544835 220.61099367 101.15893555 224.84301758 C101.48314484 225.8030368 101.80735413 226.76305603 102.14138794 227.75216675 C102.77273142 229.61754963 103.40788879 231.48164718 104.04733276 233.3442688 C104.33150055 234.18448578 104.61566833 235.02470276 104.90844727 235.89038086 C105.16272491 236.63432098 105.41700256 237.37826111 105.6789856 238.14474487 C106.22436523 240.11352539 106.22436523 240.11352539 106.22436523 243.11352539 C98.30436523 243.11352539 90.38436523 243.11352539 82.22436523 243.11352539 C75.9685546 224.54898466 69.79464947 205.9605284 63.84848022 187.29415894 C63.26597731 185.46615771 62.68201411 183.63862116 62.09658813 181.81155396 C61.27522856 179.24567144 60.45979246 176.67798618 59.64624023 174.10961914 C59.3999437 173.34245575 59.15364716 172.57529236 58.89988708 171.78488159 C57.95604897 168.78410206 57.22436523 166.27959921 57.22436523 163.11352539 C27.19436523 163.11352539 -2.83563477 163.11352539 -33.77563477 163.11352539 C-34.76563477 166.74352539 -35.75563477 170.37352539 -36.77563477 174.11352539 C-37.93199642 177.73721304 -39.10789684 181.34574069 -40.32250977 184.94946289 C-40.65679993 185.94950348 -40.99109009 186.94954407 -41.33551025 187.97988892 C-42.39603651 191.15039675 -43.46072201 194.31948856 -44.52563477 197.48852539 C-45.22383424 199.5730661 -45.92175281 201.65770093 -46.61938477 203.74243164 C-47.99363847 207.84804478 -49.36940484 211.95314605 -50.74633789 216.05786133 C-53.76894534 225.07213784 -56.77144645 234.09309606 -59.77563477 243.11352539 C-67.36563477 243.11352539 -74.95563477 243.11352539 -82.77563477 243.11352539 C-81.48961438 237.32643367 -80.18178618 231.90270243 -78.29223633 226.33862305 C-78.05108597 225.61634018 -77.80993561 224.89405731 -77.56147766 224.14988708 C-76.7672543 221.77436325 -75.9667155 219.40101812 -75.16625977 217.02758789 C-74.59686318 215.32757281 -74.02792405 213.62740446 -73.45941162 211.92709351 C-71.9562058 207.43456615 -70.44790472 202.94376755 -68.93817139 198.45343018 C-66.27917939 190.5426133 -63.62856583 182.62898546 -60.97875977 174.71508789 C-60.68248688 173.83077843 -60.38621399 172.94646896 -60.08096313 172.03536224 C-55.60300577 158.66419912 -51.203759 145.26900702 -46.85375977 131.85571289 C-41.98598947 116.84692235 -37.05372745 101.86110561 -32.05688477 86.89477539 C-31.73619774 85.93416576 -31.41551071 84.97355614 -31.0851059 83.98383713 C-28.81747689 77.19299897 -26.5468507 70.40316457 -24.27563477 63.61352539 C-21.97056143 56.72229011 -19.66663848 49.83067367 -17.36521912 42.93821716 C-16.46818666 40.25342588 -15.56930767 37.56925823 -14.67028809 34.88513184 C-11.56633446 25.59895133 -8.53400799 16.29671868 -5.65787506 6.93701935 C-3.54877656 0.14514743 -3.54877656 0.14514743 0 0 Z M10.22436523 18.11352539 C8.23013136 23.97805499 6.37242259 29.8653452 4.64233398 35.81274414 C4.12794249 37.56465779 3.61310681 39.31644106 3.09790039 41.06811523 C2.82455872 41.99823425 2.55121704 42.92835327 2.26959229 43.88665771 C-5.14582093 69.08259921 -13.00478911 94.13351299 -20.92201519 119.17518711 C-21.64464678 121.46095666 -22.366842 123.74686371 -23.088974 126.03279114 C-23.98377844 128.86525335 -24.88072514 131.69702434 -25.77906799 134.52836609 C-26.17480515 135.77962784 -26.5705423 137.03088959 -26.97827148 138.32006836 C-27.32687225 139.4196286 -27.67547302 140.51918884 -28.03463745 141.65206909 C-28.82367836 143.84468855 -28.82367836 143.84468855 -28.77563477 145.11352539 C-2.37563477 145.11352539 24.02436523 145.11352539 51.22436523 145.11352539 C48.89502314 135.64560833 48.89502314 135.64560833 46.13061523 126.37158203 C45.74555313 125.18933548 45.36049103 124.00708893 44.96376038 122.78901672 C44.35025978 120.92517586 44.35025978 120.92517586 43.72436523 119.02368164 C43.28696087 117.68347713 42.85003732 116.34311563 42.41355896 115.00260925 C41.49406459 112.18005708 40.57265984 109.35814037 39.64962769 106.53674316 C37.25652649 99.21892414 34.87985589 91.89577868 32.50952148 84.57055664 C32.27662981 83.85089092 32.04373814 83.1312252 31.80378914 82.38975143 C26.68010196 66.54058159 21.87114964 50.60905698 17.24731445 34.60766602 C15.6323428 29.0913237 13.93415501 23.60110874 12.22436523 18.11352539 C11.56436523 18.11352539 10.90436523 18.11352539 10.22436523 18.11352539 Z " fill="#A79D93" transform="translate(1480.775634765625,643.886474609375)"></path><path d="M0 0 C9.78798886 8.99774047 17.74691379 21.32468386 22 34 C22 34.99 22 35.98 22 37 C19.08666921 38.00990692 16.16884681 39.00615952 13.25 40 C12.425 40.28617187 11.6 40.57234375 10.75 40.8671875 C9.95078125 41.13789063 9.1515625 41.40859375 8.328125 41.6875 C7.5949707 41.93886719 6.86181641 42.19023437 6.10644531 42.44921875 C4 43 4 43 0 43 C-0.61875 41.45892578 -0.61875 41.45892578 -1.25 39.88671875 C-7.37688029 25.01923033 -14.59949814 13.06503045 -29.75 6.1875 C-45.25678934 0.25497832 -62.68624928 0.54691174 -78 7 C-87.41583703 11.54685815 -94.08589302 18.02977114 -98.15625 27.765625 C-101.6952127 39.2344856 -100.5596533 50.77637852 -95.81640625 61.734375 C-88.90625098 74.65421206 -74.79775967 79.66759917 -61.46875 83.71875 C-56.32788617 85.23780314 -51.17162227 86.70072315 -46.01123047 88.15185547 C6.90717981 103.05687876 6.90717981 103.05687876 19.4375 123.0625 C21.72987126 127.25334211 23.66017116 131.41263901 25 136 C25.20496094 136.67675781 25.40992188 137.35351562 25.62109375 138.05078125 C29.68488169 154.27790687 27.75784854 173.84366047 19.6640625 188.56640625 C8.0079161 205.61283632 -8.76392548 214.94235952 -28.76220703 218.86816406 C-54.04697044 223.13033125 -80.95587739 220.47097231 -102.515625 205.83203125 C-115.64829525 196.14771938 -127.41115314 181.97365301 -130.6875 165.5546875 C-130.790625 164.71164062 -130.89375 163.86859375 -131 163 C-128.01040055 161.64240411 -125.00892805 160.31419358 -122 159 C-121.1028125 158.60683594 -120.205625 158.21367188 -119.28125 157.80859375 C-117.96640625 157.25365234 -117.96640625 157.25365234 -116.625 156.6875 C-115.81289062 156.34074219 -115.00078125 155.99398437 -114.1640625 155.63671875 C-112 155 -112 155 -109 156 C-107.82421875 158.80859375 -107.82421875 158.80859375 -106.6875 162.4375 C-102.29535489 175.59052839 -94.92718689 186.91007333 -82.56640625 193.72265625 C-63.52406651 203.20035046 -42.87698338 203.17885772 -22.75390625 197.00390625 C-12.96499215 193.40008947 -5.60636004 187.53931282 -0.5 178.375 C4.98651104 166.09269688 5.42539803 152.27576038 0.76953125 139.66796875 C-5.49617233 126.04468294 -17.41668211 120.52351742 -30.953125 115.47265625 C-38.01454316 112.98942642 -45.19782617 110.93197894 -52.40234375 108.91015625 C-89.83823943 98.38387677 -89.83823943 98.38387677 -104 87 C-104.6290625 86.54367187 -105.258125 86.08734375 -105.90625 85.6171875 C-116.21784372 77.70258705 -121.08970543 64.93939137 -122.75 52.375 C-122.8557625 50.91812154 -122.93844296 49.45941471 -123 48 C-123.0515625 47.17371094 -123.103125 46.34742188 -123.15625 45.49609375 C-123.68275319 30.42493987 -119.16680945 15.40451974 -108.93334961 4.15869141 C-99.54132068 -5.47093577 -88.01985733 -11.65706366 -75 -15 C-74.12859375 -15.22429687 -73.2571875 -15.44859375 -72.359375 -15.6796875 C-47.27771468 -20.91100522 -19.99996011 -16.31040004 0 0 Z " fill="#A79D93" transform="translate(1328,368)"></path><path d="M0 0 C46.53 0 93.06 0 141 0 C141 6.27 141 12.54 141 19 C101.73 19 62.46 19 22 19 C22 44.74 22 70.48 22 97 C51.7 97 81.4 97 112 97 C112 103.27 112 109.54 112 116 C82.3 116 52.6 116 22 116 C22 147.02 22 178.04 22 210 C62.26 210 102.52 210 144 210 C144 216.27 144 222.54 144 229 C96.48 229 48.96 229 0 229 C0 153.43 0 77.86 0 0 Z " fill="#A79D93" transform="translate(2183,355)"></path><path d="M0 0 C46.53 0 93.06 0 141 0 C141 6.27 141 12.54 141 19 C101.73 19 62.46 19 22 19 C22 44.74 22 70.48 22 97 C51.7 97 81.4 97 112 97 C112 103.27 112 109.54 112 116 C82.3 116 52.6 116 22 116 C22 147.02 22 178.04 22 210 C62.26 210 102.52 210 144 210 C144 216.27 144 222.54 144 229 C96.48 229 48.96 229 0 229 C0 153.43 0 77.86 0 0 Z " fill="#A79D93" transform="translate(1410,355)"></path><path d="M0 0 C55.44 0 110.88 0 168 0 C168 6.27 168 12.54 168 19 C143.91 19 119.82 19 95 19 C95 88.3 95 157.6 95 229 C87.74 229 80.48 229 73 229 C73 159.7 73 90.4 73 19 C48.91 19 24.82 19 0 19 C0 12.73 0 6.46 0 0 Z " fill="#A79D93" transform="translate(1583,355)"></path><path d="M0 0 C55.77 0 111.54 0 169 0 C169 6.27 169 12.54 169 19 C144.58 19 120.16 19 95 19 C95 88.3 95 157.6 95 229 C88.07 229 81.14 229 74 229 C74 159.7 74 90.4 74 19 C49.58 19 25.16 19 0 19 C0 12.73 0 6.46 0 0 Z " fill="#A79D93" transform="translate(1779,355)"></path><path d="M0 0 C6.93 0 13.86 0 21 0 C21 69.3 21 138.6 21 210 C59.28 210 97.56 210 137 210 C137 216.27 137 222.54 137 229 C91.79 229 46.58 229 0 229 C0 153.43 0 77.86 0 0 Z " fill="#A79D93" transform="translate(1997,355)"></path><path d="M0 0 C5.28 0 10.56 0 16 0 C19.40341141 3.60611219 20.91367872 5.73944462 23 10 C24.11654195 11.79361141 25.25099978 13.57618373 26.40234375 15.34765625 C27.58297734 17.25121163 28.76126856 19.15622133 29.9375 21.0625 C35.23916843 29.59661748 40.58360655 38.10068547 46 46.5625 C46.5787085 47.46814697 47.15741699 48.37379395 47.75366211 49.30688477 C54.76755325 60.24946376 61.89944251 71.11247851 69 82 C69.33 54.94 69.66 27.88 70 0 C73.96 0 77.92 0 82 0 C82 33.66 82 67.32 82 102 C67 102 67 102 63.91015625 99.59765625 C63.30042969 98.43105469 62.69070313 97.26445313 62.0625 96.0625 C61.27848301 94.67700108 60.49182414 93.2929952 59.703125 91.91015625 C59.28353516 91.1330127 58.86394531 90.35586914 58.43164062 89.55517578 C55.6313325 84.55721794 52.42805342 79.80508791 49.3125 75 C47.92835358 72.83418525 46.54555249 70.66751015 45.1640625 68.5 C39.99687129 60.41767385 34.7492016 52.38855827 29.5 44.359375 C25.75520224 38.63082424 22.03538905 32.8863084 18.32299805 27.13671875 C16.56425166 24.41349855 14.79825508 21.69738262 13 19 C12.67 46.39 12.34 73.78 12 102 C8.04 102 4.08 102 0 102 C0 68.34 0 34.68 0 0 Z " fill="#FD6500" transform="translate(1470,946)"></path><path d="M0 0 C55.46387734 0 55.46387734 0 69.375 12.625 C78.94512765 23.03251382 81.85236272 36.28449714 82 50 C81.17852386 65.47113389 77.31804832 77.0159913 66 88 C65.4225 88.58652344 64.845 89.17304687 64.25 89.77734375 C47.49734949 105.60376598 20.58640438 102 0 102 C0 68.34 0 34.68 0 0 Z M12 11 C12 37.4 12 63.8 12 91 C37.43613274 91.52063212 37.43613274 91.52063212 58.9375 79.75 C67.47319818 70.29827567 69.47182761 58.88491328 69.24609375 46.5625 C68.53459247 36.26267191 65.6909906 27.57866842 58.21875 20.25390625 C44.92975855 9.33405877 28.44253737 11 12 11 Z " fill="#FD6500" transform="translate(1750,946)"></path><path d="M0 0 C3.96 0 7.92 0 12 0 C16.08374095 8.84298791 19.54119162 17.92301571 23.0625 27 C23.75380132 28.77884938 24.44520998 30.55765704 25.13671875 32.33642578 C26.23878594 35.171825 27.3404898 38.00736306 28.44119263 40.84329224 C30.9309291 47.25672107 33.43180069 53.66570667 35.9393158 60.07220459 C37.69955864 64.57136354 39.45558023 69.0721633 41.21090698 73.57324219 C42.06967055 75.77279588 42.93012186 77.97169138 43.79226685 80.16992188 C45.00164085 83.25469516 46.20466935 86.34187179 47.40625 89.4296875 C47.77108994 90.3559494 48.13592987 91.2822113 48.51182556 92.23654175 C48.84114578 93.08644684 49.170466 93.93635193 49.50976562 94.81201172 C49.94367615 95.92224197 49.94367615 95.92224197 50.38635254 97.05490112 C51 99 51 99 51 102 C46.71 102 42.42 102 38 102 C34.06317368 92.73687925 30.54197365 83.44526305 27 74 C13.14 74 -0.72 74 -15 74 C-18.3 83.24 -21.6 92.48 -25 102 C-29.62 102 -34.24 102 -39 102 C-36.86948651 95.47232845 -34.55727739 89.0412516 -32.11328125 82.625 C-31.73873306 81.63786011 -31.36418488 80.65072021 -30.97828674 79.63366699 C-29.75853514 76.42161213 -28.53574446 73.21072615 -27.3125 70 C-26.89558899 68.90405518 -26.47867798 67.80811035 -26.0491333 66.67895508 C-20.05592277 50.92733708 -14.00351177 35.19947164 -7.875 19.5 C-7.52998444 18.61570312 -7.18496887 17.73140625 -6.82949829 16.8203125 C-5.86433863 14.3483903 -4.89749819 11.87713532 -3.9296875 9.40625 C-3.64517227 8.67845337 -3.36065704 7.95065674 -3.06752014 7.20080566 C-1.11762557 2.23525114 -1.11762557 2.23525114 0 0 Z M5 17 C2.71911999 23.24715205 0.44071471 29.49520247 -1.8359375 35.74389648 C-2.61140314 37.87138518 -3.38744401 39.99866429 -4.1640625 42.12573242 C-5.27754074 45.17572543 -6.38897654 48.22645582 -7.5 51.27734375 C-8.0249707 52.71327126 -8.0249707 52.71327126 -8.56054688 54.1782074 C-8.88087891 55.05904495 -9.20121094 55.93988251 -9.53125 56.84741211 C-9.81548828 57.62684677 -10.09972656 58.40628143 -10.39257812 59.20933533 C-11.0535395 60.84268585 -11.0535395 60.84268585 -11 62 C0.22 62 11.44 62 23 62 C17.79742376 46.94969017 12.48794663 31.94847842 7 17 C6.34 17 5.68 17 5 17 Z " fill="#FC6400" transform="translate(1365,946)"></path><path d="M0 0 C3.09244792 0.03255208 6.18489583 0.06510417 9.27734375 0.09765625 C14.20226794 11.58248103 18.64816753 23.25598387 23.15234375 34.91015625 C23.99189714 37.08017739 24.83149728 39.25018044 25.67114258 41.42016602 C27.37607146 45.82754885 29.07977684 50.23540226 30.78271484 54.64355469 C32.77105965 59.78973427 34.76384166 64.93417833 36.75854492 70.07789612 C38.16670314 73.7108561 39.57198316 77.34492389 40.97637939 80.9793396 C41.63360096 82.67868042 42.29192053 84.377597 42.95135498 86.07608032 C43.85874294 88.41409985 44.76195457 90.75368915 45.6640625 93.09375 C45.93185013 93.78095123 46.19963776 94.46815247 46.47554016 95.17617798 C48.27734375 99.86927772 48.27734375 99.86927772 48.27734375 102.09765625 C43.98734375 102.09765625 39.69734375 102.09765625 35.27734375 102.09765625 C32.47092571 96.03579329 29.96249663 89.87832806 27.52734375 83.66015625 C27.20950928 82.85465332 26.8916748 82.04915039 26.56420898 81.21923828 C26.26844971 80.45853027 25.97269043 79.69782227 25.66796875 78.9140625 C25.40016602 78.22771729 25.13236328 77.54137207 24.85644531 76.83422852 C24.27734375 75.09765625 24.27734375 75.09765625 24.27734375 73.09765625 C10.08734375 73.09765625 -4.10265625 73.09765625 -18.72265625 73.09765625 C-19.38265625 76.06765625 -20.04265625 79.03765625 -20.72265625 82.09765625 C-21.2443283 83.77798623 -21.80020292 85.44876966 -22.4140625 87.09765625 C-22.71892578 87.92136719 -23.02378906 88.74507812 -23.33789062 89.59375 C-23.65048828 90.42003906 -23.96308594 91.24632812 -24.28515625 92.09765625 C-24.60162109 92.95488281 -24.91808594 93.81210938 -25.24414062 94.6953125 C-27.58057937 100.95557937 -27.58057937 100.95557937 -28.72265625 102.09765625 C-30.90905078 102.17024571 -33.09766014 102.18139408 -35.28515625 102.16015625 C-36.48269531 102.15113281 -37.68023438 102.14210938 -38.9140625 102.1328125 C-40.30431641 102.11541016 -40.30431641 102.11541016 -41.72265625 102.09765625 C-39.69671124 94.95097602 -37.27509538 88.03754272 -34.58203125 81.1171875 C-34.18250748 80.08146606 -33.7829837 79.04574463 -33.37135315 77.9786377 C-32.07531099 74.62110335 -30.7740884 71.26560459 -29.47265625 67.91015625 C-28.57542017 65.58957014 -27.67853186 63.26884953 -26.78198242 60.94799805 C-25.42098079 57.42526796 -24.05960872 53.90268468 -22.69670105 50.38069153 C-19.81681733 42.93781276 -16.95217972 35.4892899 -14.1015625 28.03515625 C-13.40334307 26.21117293 -12.7051016 24.38719805 -12.00683594 22.56323242 C-11.02577391 20.0002934 -10.04542961 17.43709319 -9.06750488 14.87295532 C-8.18020722 12.54719232 -7.2897032 10.22268216 -6.3984375 7.8984375 C-6.13897842 7.21559692 -5.87951935 6.53275635 -5.61219788 5.82922363 C-3.41780975 0.12259002 -3.41780975 0.12259002 0 0 Z M2.27734375 16.09765625 C0.3171943 21.52261993 -1.63990064 26.94867233 -3.59423828 32.37573242 C-4.25877486 34.21978102 -4.92412852 36.06353538 -5.59033203 37.90698242 C-6.55068214 40.56481236 -7.50803759 43.22370502 -8.46484375 45.8828125 C-8.76075409 46.69976089 -9.05666443 47.51670929 -9.36154175 48.3584137 C-9.64168121 49.13869431 -9.92182068 49.91897491 -10.21044922 50.72290039 C-10.57685013 51.73883018 -10.57685013 51.73883018 -10.95065308 52.77528381 C-11.9733104 55.85168462 -12.83203129 58.98046888 -13.72265625 62.09765625 C-2.83265625 62.09765625 8.05734375 62.09765625 19.27734375 62.09765625 C18.61864794 58.14548137 18.14340664 55.3240743 16.78686523 51.74462891 C16.48662949 50.94425201 16.18639374 50.14387512 15.87705994 49.31924438 C15.55411453 48.47526093 15.23116913 47.63127747 14.8984375 46.76171875 C14.56691177 45.88236664 14.23538605 45.00301453 13.89381409 44.09701538 C12.83930946 41.30358184 11.77719892 38.51311238 10.71484375 35.72265625 C9.99623998 33.82310756 9.27813548 31.92336992 8.56054688 30.0234375 C6.80525362 25.37930225 5.04313577 20.73780927 3.27734375 16.09765625 C2.94734375 16.09765625 2.61734375 16.09765625 2.27734375 16.09765625 Z " fill="#FC6500" transform="translate(1647.72265625,945.90234375)"></path><path d="M0 0 C4.29 0 8.58 0 13 0 C13.80385004 2.07308694 14.60769657 4.14617524 15.41152954 6.2192688 C16.14477169 8.11022013 16.87807064 10.00114944 17.61141968 11.89205933 C19.69838647 17.27348267 21.78429752 22.65531165 23.8684082 28.0378418 C27.94111432 38.55310041 32.02038931 49.06555245 36.13624573 59.56401062 C37.89985368 64.06352003 39.65864264 68.56490603 41.41708374 73.06643677 C42.26315667 75.22825278 43.11164315 77.38912577 43.96255493 79.54904175 C45.15168123 82.56811831 46.33256044 85.59030037 47.51171875 88.61328125 C47.86704681 89.50900848 48.22237488 90.40473572 48.58847046 91.3276062 C49.06807724 92.56403366 49.06807724 92.56403366 49.55737305 93.82543945 C49.83759811 94.53924271 50.11782318 95.25304596 50.40653992 95.98847961 C51 98 51 98 51 102 C46.71 102 42.42 102 38 102 C36.32723561 97.73146373 34.66155722 93.46039647 33 89.1875 C32.52304688 87.97255859 32.04609375 86.75761719 31.5546875 85.50585938 C31.10351562 84.34248047 30.65234375 83.17910156 30.1875 81.98046875 C29.76855469 80.90692139 29.34960938 79.83337402 28.91796875 78.72729492 C28 76 28 76 28 73 C13.81 73 -0.38 73 -15 73 C-15.99 76.3 -16.98 79.6 -18 83 C-18.58672975 84.71837365 -19.18928206 86.43166136 -19.82421875 88.1328125 C-20.13037109 88.9578125 -20.43652344 89.7828125 -20.75195312 90.6328125 C-21.06068359 91.45523437 -21.36941406 92.27765625 -21.6875 93.125 C-22.00783203 93.98609375 -22.32816406 94.8471875 -22.65820312 95.734375 C-23.43599453 97.82396385 -24.21758732 99.91213712 -25 102 C-29.29 102 -33.58 102 -38 102 C-37.28026894 97.68161366 -36.63948399 94.64541154 -35.10498047 90.70532227 C-34.71252136 89.68918854 -34.32006226 88.67305481 -33.91571045 87.62612915 C-33.48719788 86.53392059 -33.0586853 85.44171204 -32.6171875 84.31640625 C-32.17030579 83.16377289 -31.72342407 82.01113953 -31.26300049 80.82357788 C-30.05506161 77.71071612 -28.84219333 74.59986328 -27.62711334 71.48978806 C-26.3720013 68.27356743 -25.12341462 65.0548173 -23.87451172 61.83618164 C-22.36642935 57.95067786 -20.85782887 54.06537978 -19.34634399 50.18119812 C-15.23607837 39.61870716 -11.15713622 29.04435815 -7.0947876 18.46334839 C-6.13655648 15.96759929 -5.17755015 13.47214951 -4.21826172 10.97680664 C-2.81172313 7.31804436 -1.40567453 3.65909433 0 0 Z M6 16 C3.71448512 22.06636323 1.43660823 28.13555364 -0.8359375 34.20678711 C-1.61021427 36.27255364 -2.38624845 38.33766235 -3.1640625 40.40209961 C-4.28065362 43.36662054 -5.39093909 46.33343633 -6.5 49.30078125 C-6.84998047 50.2258699 -7.19996094 51.15095856 -7.56054688 52.1040802 C-7.88087891 52.96474594 -8.20121094 53.82541168 -8.53125 54.7121582 C-8.81548828 55.46938675 -9.09972656 56.2266153 -9.39257812 57.00679016 C-10.14575491 59.13099894 -10.14575491 59.13099894 -10 62 C0.89 62 11.78 62 23 62 C21.0876411 55.62547032 19.14151811 49.383392 16.86328125 43.1484375 C16.57897751 42.36352936 16.29467377 41.57862122 16.00175476 40.76992798 C15.10790887 38.30400935 14.21028129 35.83948819 13.3125 33.375 C12.6996171 31.6862896 12.0869848 29.99748824 11.47460938 28.30859375 C9.98596094 24.2046743 8.4939233 20.10200206 7 16 C6.67 16 6.34 16 6 16 Z " fill="#FC6500" transform="translate(1915,946)"></path><path d="M0 0 C0 4.29 0 8.58 0 13 C-3.4738503 12.30522994 -5.99012171 11.64306886 -9.1875 10.4375 C-19.15109213 7.42455747 -31.95203079 7.33033078 -41.54296875 11.55859375 C-52.26435985 17.84824926 -57.19562924 26.3517161 -61.375 37.75 C-63.98043966 50.80433831 -62.18888249 64.39593092 -55.375 75.875 C-50.29540509 82.85783553 -43.36173811 87.13111205 -35 89 C-32.11854412 89.30787591 -29.27164054 89.38030063 -26.375 89.375 C-25.5917334 89.37556396 -24.8084668 89.37612793 -24.00146484 89.37670898 C-16.77095541 89.24166273 -10.77395247 87.53260385 -4 85 C-2.68 84.67 -1.36 84.34 0 84 C0 87.96 0 91.92 0 96 C-14.83912511 101.54232383 -33.22158244 104.72624395 -48.4375 98.37890625 C-60.2231221 92.03694802 -68.71265822 83.27400304 -73.2578125 70.5234375 C-77.81670012 55.02321959 -77.20808302 38.47353242 -70.375 23.6875 C-63.43650549 10.97262336 -52.82858991 1.83092306 -38.92578125 -2.28515625 C-25.93193069 -5.45988876 -12.65003746 -3.98562824 0 0 Z " fill="#FC6400" transform="translate(1278,948)"></path><path d="M0 0 C0.33 0 0.66 0 1 0 C1.18175781 1.24394531 1.36351562 2.48789062 1.55078125 3.76953125 C3.62914459 18.48186399 3.62914459 18.48186399 8.08984375 32.6015625 C9 35 9 35 9 38 C6.69 38 4.38 38 2 38 C1.04065662 32.97755525 0.68608963 28.03231138 0.4375 22.9375 C0.3950415 22.10565186 0.35258301 21.27380371 0.30883789 20.41674805 C-0.0173156 13.60558686 -0.11018334 6.81912438 0 0 Z " fill="#FD6D0E" transform="translate(664,940)"></path><path d="M0 0 C0.66 0.33 1.32 0.66 2 1 C0.75122171 4.74633486 -1.06047445 6.41041797 -4 9 C-4.99 9 -5.98 9 -7 9 C-3.375 2.25 -3.375 2.25 0 0 Z " fill="#FDEADE" transform="translate(624,771)"></path><path d="M0 0 C0.99 0.33 1.98 0.66 3 1 C1.576875 1.928125 1.576875 1.928125 0.125 2.875 C-2.94445109 4.81970969 -2.94445109 4.81970969 -5 7 C-4.6189482 4.23737447 -4.16402868 3.15856106 -2.125 1.1875 C-1.42375 0.795625 -0.7225 0.40375 0 0 Z " fill="#F68235" transform="translate(625,774)"></path></svg>